<?xml version="1.0" encoding="UTF-8" standalone="no"?>
<svg width="14px" height="12px" viewBox="0 0 14 12" version="1.1" xmlns="http://www.w3.org/2000/svg" xmlns:xlink="http://www.w3.org/1999/xlink" xmlns:sketch="http://www.bohemiancoding.com/sketch/ns">
    <!-- Generator: Sketch 3.3.3 (12081) - http://www.bohemiancoding.com/sketch -->
    <title>Twitter Icon</title>
    <desc>Created with Sketch.</desc>
    <defs></defs>
    <g id="TKW---Desktop" stroke="none" stroke-width="1" fill="none" fill-rule="evenodd" sketch:type="MSPage">
        <g id="Elements" sketch:type="MSArtboardGroup" transform="translate(-1489.000000, -1216.000000)" fill="#ADADAD">
            <g id="Panel-Stream-Variations" sketch:type="MSLayerGroup" transform="translate(131.000000, 105.000000)">
                <g id="Stream---Twitter-Opened" transform="translate(764.000000, 359.000000)" sketch:type="MSShapeGroup">
                    <g id="Stream">
                        <g id="Comments" transform="translate(-7.000000, -20.000000)">
                            <g id="Comment-3" transform="translate(0.000000, 394.000000)">
                                <path d="M613.350766,379.893842 C613.944063,379.520092 614.399307,378.927455 614.61296,378.221482 C614.057463,378.568412 613.443623,378.819309 612.788695,378.95514 C612.266068,378.366829 611.519105,378 610.692434,378 C609.106474,378 607.821271,379.35398 607.821271,381.023745 C607.821271,381.2608 607.845102,381.491798 607.894406,381.712415 C605.508071,381.586101 603.392088,380.383524 601.974585,378.552839 C601.727241,379.000994 601.585901,379.520092 601.585901,380.073796 C601.585901,381.122374 602.092915,382.048098 602.863708,382.591421 C602.392851,382.575848 601.949932,382.438287 601.562071,382.213344 L601.562071,382.250547 C601.562071,383.716133 602.551447,384.938608 603.867054,385.215461 C603.625462,385.286404 603.372366,385.321876 603.109409,385.321876 C602.924517,385.321876 602.743734,385.303707 602.569525,385.268236 C602.934378,386.469082 603.995246,387.344627 605.252509,387.367986 C604.268885,388.17951 603.030522,388.662271 601.685332,388.662271 C601.453601,388.662271 601.224335,388.649293 601,388.620743 C602.271233,389.478119 603.780771,389.979049 605.402888,389.979049 C610.686682,389.979049 613.57428,385.37119 613.57428,381.375001 C613.57428,381.243497 613.572636,381.112857 613.566884,380.983948 C614.128133,380.557422 614.616247,380.024482 615,379.418002 C614.484768,379.658518 613.930915,379.821168 613.350766,379.893842 Z" id="Twitter-Icon"></path>
                            </g>
                        </g>
                    </g>
                </g>
            </g>
        </g>
    </g>
</svg>